<?xml version="1.0" encoding="UTF-8"?>
<!DOCTYPE svg PUBLIC "-//W3C//DTD SVG 1.1//EN" "http://www.w3.org/Graphics/SVG/1.1/DTD/svg11.dtd">
<svg xmlns="http://www.w3.org/2000/svg" xml:space="preserve" width="281.197mm" height="279.515mm" version="1.1" style="shape-rendering:geometricPrecision; text-rendering:geometricPrecision; image-rendering:optimizeQuality; fill-rule:evenodd; clip-rule:evenodd"
viewBox="0 0 26441.05 26282.96"
 xmlns:xlink="http://www.w3.org/1999/xlink">
 <defs>
  <style type="text/css">
   <![CDATA[
    .fil2 {fill:#111112}
    .fil0 {fill:#E9F0EC}
    .fil3 {fill:#2B2A29;fill-rule:nonzero}
    .fil4 {fill:#3FC16E;fill-rule:nonzero}
    .fil1 {fill:#E9F0EC;fill-rule:nonzero}
   ]]>
  </style>
 </defs>
 <g id="Layer_x0020_1">
  <metadata id="axuno-Layer"/>
  <g id="_2087239751568">
   <g>
    <polygon class="fil0" points="159.84,5.43 26431.95,5.43 26431.95,26277.53 159.84,26277.53 "/>
    <path id="_1" class="fil1" d="M26428.61 10.85l-26272.1 0 6.68 -10.85 26272.1 0 5.76 3.43 -12.44 7.42zm6.68 -10.85l5.76 0 0 3.43 -5.76 -3.43zm-12.44 26279.52l0 -26272.1 18.2 -3.99 0 26272.1 -12.44 7.42 -5.76 -3.43zm18.2 -3.99l0 7.42 -12.44 0 12.44 -7.42zm-26277.87 -3.43l26272.1 0 -6.68 10.85 -26272.1 0 -5.76 -3.43 12.44 -7.42zm-6.68 10.85l-5.76 0 0 -3.43 5.76 3.43zm12.44 -26279.52l0 26272.1 -18.2 3.99 0 -26272.1 12.44 -7.42 5.76 3.43zm-18.2 3.99l0 -7.42 12.44 0 -12.44 7.42z"/>
   </g>
   <polygon class="fil2" points="26272.1,13853.11 26238.92,13853.11 26238.92,13886.29 26272.1,13886.29 "/>
   <polygon class="fil2" points="25774.51,13886.29 25741.34,13886.29 25741.34,13919.46 25774.51,13919.46 "/>
   <polygon class="fil2" points="25542.32,13952.64 25509.14,13952.64 25509.14,13985.81 25542.32,13985.81 "/>
   <polygon class="fil2" points="928.81,14085.32 928.81,14052.15 895.64,14052.15 895.64,14085.32 "/>
   <path class="fil3" d="M5008.95 21971.07c-879.67,-31.69 -1546.78,-272.49 -1994.79,-722.42 -451.27,-453.09 -676.92,-1185.02 -676.92,-2202.11l0 -2978.38c0,-1565.24 -536.3,-2427.07 -1608.91,-2588.66l0 -659.05c1072.6,-148.92 1608.91,-956.88 1608.91,-2420.73l0 -3136.82c0,-991.74 215.83,-1717.32 650.76,-2183.09 434.94,-462.59 1108.57,-712.91 2020.95,-750.93l0 861.83c-604.98,38.03 -1030.09,231.31 -1278.63,576.67 -245.26,345.36 -369.53,937.88 -369.53,1771.18l0 2934.03c0,1486.02 -503.6,2376.37 -1510.8,2671.04l0 38.03c1007.2,310.52 1510.8,1245.22 1510.8,2804.12l0 2766.09c0,845.99 124.27,1444.83 369.53,1793.38 248.53,351.7 673.64,538.64 1278.63,563.98l0 861.84z"/>
   <path class="fil3" d="M25958.08 13479.5c-1072.6,161.59 -1608.91,1023.42 -1608.91,2588.66l0 2978.38c0,985.4 -212.56,1707.82 -637.68,2173.59 -425.11,462.6 -1098.76,712.91 -2024.21,750.94l0 -861.84c611.51,-25.34 1036.63,-218.62 1278.62,-576.66 238.72,-358.04 356.45,-953.72 356.45,-1780.7l0 -2766.09c0,-1558.9 506.87,-2493.6 1514.07,-2804.12l0 -38.03c-1007.2,-307.34 -1514.07,-1197.68 -1514.07,-2671.04l0 -2934.03c0,-548.15 -52.32,-991.74 -160.24,-1324.43 -107.92,-335.86 -274.69,-579.84 -493.79,-738.26 -222.36,-158.42 -549.38,-253.48 -981.04,-285.17l0 -861.83c931.98,38.02 1608.91,291.5 2030.75,760.43 421.86,472.11 631.14,1194.52 631.14,2173.59l0 3136.82c0,1463.85 536.31,2271.81 1608.91,2420.73l0 659.05z"/>
   <path class="fil4" d="M5395.42 14548.19l707.85 0 0 771.41 -687.32 0 0 2609.93 -800.18 0 0 -2609.93 -425.73 0 0 -771.41 425.73 0 0 -154.29c0,-394.28 93.18,-707.13 279.54,-938.55 186.38,-231.43 448.83,-347.13 787.35,-347.13 119.69,0 233.38,16.07 341.1,48.21 107.72,32.14 197.48,78.21 269.29,138.22l-210.31 726.4c-92.32,-81.42 -200.04,-122.14 -323.14,-122.14 -242.79,0 -364.18,167.14 -364.18,501.42l0 147.85z"/>
   <path id="_1_0" class="fil4" d="M7780.55 17980.95c-290.66,0 -551.4,-76.07 -782.22,-228.2 -230.82,-152.14 -411.19,-363.21 -541.14,-633.2 -129.95,-269.99 -194.92,-576.42 -194.92,-919.26 0,-342.85 64.97,-649.27 194.92,-919.26 129.94,-270 310.32,-481.06 541.14,-633.2 230.82,-152.14 491.56,-228.2 782.22,-228.2 290.67,0 550.55,76.06 779.65,228.2 229.11,152.14 408.64,363.2 538.58,633.2 129.94,269.99 194.92,576.41 194.92,919.26 0,342.84 -64.98,649.27 -194.92,919.26 -129.94,269.99 -309.46,481.06 -538.58,633.2 -229.11,152.13 -488.99,228.2 -779.65,228.2zm0 -822.83c205.17,0 373.58,-86.78 505.23,-260.35 131.65,-173.57 197.48,-406.06 197.48,-697.48 0,-291.42 -65.83,-523.92 -197.48,-697.48 -131.65,-173.57 -300.06,-260.35 -505.23,-260.35 -205.17,0 -374.44,86.78 -507.8,260.35 -133.36,173.56 -200.04,406.06 -200.04,697.48 0,291.42 66.68,523.91 200.04,697.48 133.36,173.57 302.63,260.35 507.8,260.35z"/>
   <path id="_2" class="fil4" d="M10591.41 14927.46c95.74,-167.14 224.84,-293.56 387.26,-379.27 162.42,-85.72 349.64,-128.57 561.65,-128.57l0 925.68c-88.91,-8.57 -148.75,-12.85 -179.52,-12.85 -229.11,0 -408.64,80.36 -538.58,241.07 -129.94,160.71 -194.92,401.77 -194.92,723.2l0 1632.81 -800.17 0 0 -3458.48 764.27 0 0 456.41z"/>
   <path id="_3" class="fil4" d="M15551.44 14419.62c345.37,0 619.79,127.5 823.26,382.49 203.46,254.99 305.19,637.48 305.19,1147.46l0 1979.95 -800.17 0 0 -1825.67c0,-274.28 -45.31,-478.92 -135.93,-613.92 -90.62,-134.99 -219.7,-202.49 -387.25,-202.49 -188.08,0 -336.83,76.07 -446.26,228.21 -109.42,152.14 -164.14,378.21 -164.14,678.19l0 1735.67 -800.16 0 0 -1825.67c0,-544.27 -174.4,-816.41 -523.19,-816.41 -184.66,0 -331.69,76.07 -441.12,228.21 -109.42,152.14 -164.14,378.21 -164.14,678.19l0 1735.67 -800.17 0 0 -3458.48 764.27 0 0 398.56c102.59,-145.71 228.25,-257.14 377.01,-334.28 148.75,-77.14 312.03,-115.7 489.85,-115.7 194.92,0 371.02,48.21 528.32,144.64 157.29,96.42 283.82,236.78 379.56,421.06 112.85,-179.99 255.61,-319.28 428.3,-417.84 172.69,-98.57 361.61,-147.85 566.79,-147.85z"/>
   <path id="_4" class="fil4" d="M18511.06 14419.62c427.44,0 755.71,127.5 984.83,382.49 229.11,254.99 343.66,639.62 343.66,1153.89l0 1973.52 -748.88 0 0 -430.71c-150.47,321.42 -430.87,482.13 -841.21,482.13 -212.01,0 -395.8,-44.99 -551.4,-134.99 -155.58,-90.01 -274.41,-214.29 -356.48,-372.85 -82.07,-158.57 -123.1,-338.57 -123.1,-539.99 0,-321.41 96.61,-574.27 289.8,-758.55 193.2,-184.28 491.56,-276.42 895.07,-276.42l636.03 0c0,-218.56 -53,-386.78 -159.01,-504.62 -106,-117.86 -265.02,-176.79 -477.03,-176.79 -147.04,0 -291.51,28.93 -433.42,86.79 -141.91,57.85 -262.45,136.06 -361.61,234.63l-287.24 -700.7c150.46,-132.86 330.85,-235.71 541.14,-308.56 210.31,-72.85 426.59,-109.28 648.87,-109.28zm-61.56 2886.35c136.79,0 258.18,-39.64 364.19,-118.93 106,-79.28 181.23,-196.06 225.68,-350.35l0 -353.55 -548.83 0c-328.28,0 -492.42,134.99 -492.42,404.99 0,128.57 40.18,230.35 120.54,305.34 80.36,75 190.65,112.5 330.84,112.5z"/>
   <path id="_5" class="fil4" d="M22342.66 17762.38c-78.66,72.85 -175.25,127.5 -289.81,163.92 -114.56,36.43 -235.09,54.64 -361.61,54.64 -328.28,0 -582.18,-104.99 -761.7,-314.99 -179.53,-209.99 -269.29,-518.56 -269.29,-925.68l0 -1420.68 -425.73 0 0 -771.41 425.73 0 0 -842.13 800.18 0 0 842.13 687.32 0 0 771.41 -687.32 0 0 1407.81c0,145.71 29.92,258.21 89.76,337.49 59.84,79.29 144.47,118.92 253.89,118.92 126.53,0 234.24,-42.85 323.14,-128.57l215.44 707.13z"/>
   <g id="_2087239751520">
    <polygon class="fil2" points="25940.37,13040.01 25940.37,13006.84 25874.04,13006.84 25874.04,13040.01 "/>
    <polygon class="fil2" points="829.3,12874.15 796.13,12874.15 796.13,12907.33 829.3,12907.33 "/>
    <polygon class="fil2" points="663.44,12940.5 630.27,12940.5 630.27,12973.68 663.44,12973.68 "/>
    <polygon class="fil2" points="398.07,13006.84 364.89,13006.84 364.89,13040.01 398.07,13040.01 "/>
    <polygon class="fil2" points="33.17,13073.19 33.17,13040.01 -0,13040.01 -0,13073.19 "/>
    <path class="fil4" d="M5446.72 11922.63c-229.11,0 -453.09,-35.36 -671.95,-106.07 -218.85,-70.71 -393.24,-159.64 -523.19,-266.78l266.73 -719.97c123.1,98.56 271.85,178.92 446.25,241.06 174.4,62.14 345.37,93.21 512.94,93.21 338.53,0 507.79,-104.99 507.79,-314.99 0,-98.56 -46.16,-169.27 -138.49,-212.13 -92.33,-42.86 -234.24,-79.29 -425.73,-109.28 -225.69,-42.86 -412.06,-92.14 -559.1,-147.85 -147.04,-55.71 -274.42,-154.29 -382.14,-295.71 -107.71,-141.42 -161.57,-342.84 -161.57,-604.27 0,-218.56 50.45,-412.49 151.31,-581.78 100.88,-169.27 247.92,-301.06 441.12,-395.34 193.2,-94.28 421.46,-141.42 684.77,-141.42 194.91,0 388.97,26.78 582.17,80.35 193.2,53.57 353.07,127.5 479.59,221.78l-266.73 713.55c-242.79,-171.42 -507.8,-257.14 -795.04,-257.14 -170.98,0 -299.21,30.01 -384.7,90 -85.49,60 -128.24,137.14 -128.24,231.43 0,107.14 46.16,182.14 138.5,225 92.33,42.85 239.36,83.56 441.12,122.14 225.69,47.15 410.35,97.5 553.96,151.07 143.63,53.57 268.44,151.07 374.45,292.49 106,141.42 159.01,338.57 159.01,591.41 0,214.28 -51.29,404.99 -153.87,572.13 -102.59,167.14 -252.2,296.78 -448.83,388.92 -196.63,92.14 -430.01,138.21 -700.14,138.21z"/>
    <path id="_1_1" class="fil4" d="M10925.87 8361.31c345.38,0 619.79,127.5 823.26,382.49 203.47,254.99 305.2,637.48 305.2,1147.46l0 1979.95 -800.18 0 0 -1825.67c0,-274.28 -45.3,-478.92 -135.93,-613.92 -90.62,-134.99 -219.7,-202.49 -387.25,-202.49 -188.08,0 -336.83,76.07 -446.25,228.21 -109.43,152.14 -164.14,378.21 -164.14,678.19l0 1735.67 -800.17 0 0 -1825.67c0,-544.27 -174.4,-816.41 -523.19,-816.41 -184.65,0 -331.69,76.07 -441.12,228.21 -109.41,152.14 -164.13,378.21 -164.13,678.19l0 1735.67 -800.17 0 0 -3458.48 764.27 0 0 398.56c102.58,-145.71 228.25,-257.14 377,-334.28 148.76,-77.14 312.04,-115.7 489.85,-115.7 194.92,0 371.03,48.21 528.32,144.64 157.29,96.42 283.82,236.78 379.56,421.06 112.85,-179.99 255.62,-319.28 428.3,-417.84 172.69,-98.57 361.61,-147.85 566.79,-147.85z"/>
    <path id="_2_2" class="fil4" d="M14035.3 8361.31c427.44,0 755.72,127.5 984.83,382.49 229.11,254.99 343.66,639.62 343.66,1153.89l0 1973.52 -748.88 0 0 -430.71c-150.46,321.42 -430.87,482.13 -841.21,482.13 -212.02,0 -395.81,-44.99 -551.4,-134.99 -155.59,-90.01 -274.42,-214.29 -356.49,-372.85 -82.07,-158.57 -123.1,-338.57 -123.1,-539.99 0,-321.41 96.61,-574.27 289.8,-758.55 193.21,-184.28 491.56,-276.42 895.07,-276.42l636.04 0c0,-218.56 -53,-386.78 -159.01,-504.62 -106.01,-117.86 -265.02,-176.79 -477.04,-176.79 -147.04,0 -291.51,28.93 -433.42,86.79 -141.9,57.85 -262.45,136.06 -361.61,234.63l-287.24 -700.7c150.46,-132.86 330.85,-235.71 541.14,-308.56 210.3,-72.85 426.59,-109.28 648.86,-109.28zm-61.55 2886.35c136.79,0 258.18,-39.64 364.19,-118.93 105.99,-79.28 181.22,-196.06 225.68,-350.35l0 -353.55 -548.84 0c-328.28,0 -492.42,134.99 -492.42,404.99 0,128.57 40.18,230.35 120.55,305.34 80.35,75 190.64,112.5 330.84,112.5z"/>
    <path id="_3_3" class="fil4" d="M17001.1 8869.15c95.74,-167.14 224.84,-293.56 387.26,-379.27 162.42,-85.72 349.64,-128.57 561.65,-128.57l0 925.68c-88.91,-8.57 -148.75,-12.85 -179.52,-12.85 -229.11,0 -408.64,80.36 -538.58,241.07 -129.94,160.71 -194.92,401.77 -194.92,723.2l0 1632.81 -800.17 0 0 -3458.48 764.27 0 0 456.41z"/>
    <path id="_4_4" class="fil4" d="M20377.24 11704.07c-78.65,72.85 -175.24,127.5 -289.81,163.92 -114.55,36.43 -235.09,54.64 -361.61,54.64 -328.28,0 -582.17,-104.99 -761.7,-314.99 -179.52,-209.99 -269.28,-518.56 -269.28,-925.68l0 -1420.68 -425.73 0 0 -771.41 425.73 0 0 -842.13 800.17 0 0 842.13 687.32 0 0 771.41 -687.32 0 0 1407.81c0,145.71 29.92,258.21 89.77,337.49 59.84,79.29 144.47,118.92 253.89,118.92 126.53,0 234.24,-42.85 323.14,-128.57l215.43 707.13z"/>
    <path class="fil4" d="M21547.12 11922.63c-174.99,0 -322.24,-59.76 -441.75,-179.26 -119.5,-119.51 -179.26,-268.89 -179.26,-448.15 0,-183.54 59.76,-331.85 179.26,-444.95 119.51,-113.11 266.76,-169.66 441.75,-169.66 174.99,0 322.24,56.55 441.75,169.66 119.51,113.1 179.26,261.41 179.26,444.95 0,179.26 -59.75,328.64 -179.26,448.15 -119.5,119.5 -266.75,179.26 -441.75,179.26z"/>
   </g>
  </g>
 </g>
</svg>
